# xmcd
#
# Track frame offsets:
#	150
#	13677
#	27370
#	41323
#	54184
#	68235
#	83174
#	93218
#	104645
#	121267
#	130305
#	144059
#	156836
#	167314
#	179616
#	192934
#	205366
#	224754
#	236232
#	248445
#
# Disc length: 3489 seconds
# Revision: 2
# Processed by: cddbd v1.5.2PL0 Copyright (c) Steve Scherf et al.
# Submitted via: dBpowerAMP V12.0
#
DISCID=100d9f14
DTITLE=Various Artist - Oh Brother, Here Art Thou Bluegrass
DYEAR=2008
DGENRE=Country
TTITLE0=Stanley Brothers, The - I Am a Man of Constant Sorrow
TTITLE1=Rouse Brothers, The - Orange Blossom Special
TTITLE2=Macon, Uncle Dave - Go Along Mule
TTITLE3=Tanner, Gid - Hawkins Rag
TTITLE4=Carson, John - Cotton Eyed Joe
TTITLE5=Blue Sky Carson - In the Hills of Roane County
TTITLE6=Monroe, Bil - Y'all Come
TTITLE7=Monroe, Bill - Roll in My Sweet Baby's Arms
TTITLE8=Stoneman, Ernest V - Sally Goodin
TTITLE9=Reno, Don - Feudin' Banjos
TTITLE10=Flatt, Lester - Earl's Breakdown
TTITLE11=Delmore Brothers, The - Going Back to the Blue Ridge Mountains
TTITLE12=Martin, Jimmy - My Lonely Heart
TTITLE13=O'Day, Molly - Poor Ellen Smith
TTITLE14=Stanley Brothers, The - The Little Glass of Wine
TTITLE15=Monroe, Bill - Mule Skinner Blues
TTITLE16=Stoneman, Ernest V - Hop Light Ladies
TTITLE17=Eanes, Jim - Ridn' the Waves
TTITLE18=Flatt, Lester - Foogy Mountain Breakdown
TTITLE19=Monroe, Bill - I'm Going Back to Old Kentucky
EXTD=
EXTT0=
EXTT1=
EXTT2=
EXTT3=
EXTT4=
EXTT5=
EXTT6=
EXTT7=
EXTT8=
EXTT9=
EXTT10=
EXTT11=
EXTT12=
EXTT13=
EXTT14=
EXTT15=
EXTT16=
EXTT17=
EXTT18=
EXTT19=
PLAYORDER=
